<mxfile host="app.diagrams.net" modified="2024-02-01T19:03:44.792Z" agent="Mozilla/5.0 (Windows NT 10.0; Win64; x64) AppleWebKit/537.36 (KHTML, like Gecko) Chrome/120.0.0.0 Safari/537.36 Edg/120.0.0.0" version="21.8.2" etag="g53MouHdaoCOjMjKSU9n" type="github">
  <diagram name="Page-1" id="LIdtpLegqzpgDjp63rfY">
    <mxGraphModel>
      <root>
        <mxCell id="0" />
        <mxCell id="1" parent="0" />
      </root>
    </mxGraphModel>
  </diagram>
</mxfile>
